{"title":"All About The Benjamins (2002) - DVDRip - MP3 - ENG","uid":4354813,"size":734137597,"categoryP":"video","categoryS":"movies","magnet":"?xt=urn:btih:d7d1d392277becdce2da5ee1c12690662e6d62d7&amp;dn=All+About+The+Benjamins+%282002%29+-+DVDRip+-+MP3+-+ENG&amp;tr=udp%3A%2F%2Ftracker.openbittorrent.com%3A80&amp;tr=udp%3A%2F%2Fopen.demonii.com%3A1337&amp;tr=udp%3A%2F%2Ftracker.coppersurfer.tk%3A6969&amp;tr=udp%3A%2F%2Fexodus.desync.com%3A6969","seeders":18,"leechers":1,"uploader":"206andy206","files":-1,"time":1219355994,"description":"IMDB: http://www.imdb.com/title/tt0278295/\nUser Rating: 5.2/10 (3,307 votes) \nRelease Date: 8 March 2002 (USA)\nGenre: Action | Comedy | Crime | Thriller\n\nPlot: \nIce Cube and Mike Epps are the driving force of this high style, high impact, action/comedy. One's a top dog bounty hunter, the other a two-bit hustler. Add to the mix a botched diamond heist, a lost wallet with a winning lottery ticket and one thing becomes clear - that it's &quot;All About the Benjamins.&quot;\n\n\n\nGeneral\nComplete name                    : All About The Benjamins (2002) - DVDRip - MP3 - ENG.avi\nFormat                           : AVI\nFormat/Info                      : Audio Video Interleave\nFile size                        : 700 MiB\nDuration                         : 1h 33mn\nOveral bit rate                  : 1046 Kbps\nIAS1                             : English\n\nVideo\nFormat                           : MPEG-4 Visual\nCodec ID                         : XVID\nDuration                         : 1h 33mn\nBit rate                         : 910 Kbps\nWidth                            : 592 pixels\nHeight                           : 256 pixels\nDisplay aspect ratio             : 2.35\nFrame rate                       : 25.000 fps\nResolution                       : 8 bits\nScan type                        : Progressive\nStream size                      : 610 MiB (87%)\n\n\nAudio\nFormat                           : MPEG Audio\nFormat version                   : Version 1\nFormat profile                   : Layer 3\nCodec ID/Hint                    : MP3\nDuration                         : 1h 33mn\nBit rate mode                    : Constant\nBit rate                         : 128 Kbps\nChannel(s)                       : 2 channels\nSampling rate                    : 48.0 KHz\nResolution                       : 16 bits\nStream size                      : 85.7 MiB (12%)\nWriting library                  : LAME3.97 \nEncoding settings                : CBR\n\nTrackers:\nhttp://www.torrent-downloads.to:5869/announce\nhttp://open.tracker.thepiratebay.se:80/announce\nhttp://tpb.tracker.thepiratebay.se:80/announce\nhttp://vip.tracker.thepiratebay.se/announce\n\n\nInfo Hash: D7D1D392277BECDCE2DA5EE1C12690662E6D62D7\n\n\n\nEnjoy, and please seed.","torrent":{"xt":"urn:btih:d7d1d392277becdce2da5ee1c12690662e6d62d7","amp;dn":"All+About+The+Benjamins+%282002%29+-+DVDRip+-+MP3+-+ENG","amp;tr":["udp%3A%2F%2Ftracker.openbittorrent.com%3A80","udp%3A%2F%2Fopen.demonii.com%3A1337","udp%3A%2F%2Ftracker.coppersurfer.tk%3A6969","udp%3A%2F%2Fexodus.desync.com%3A6969"],"infoHash":"d7d1d392277becdce2da5ee1c12690662e6d62d7","infoHashBuffer":{"type":"Buffer","data":[215,209,211,146,39,123,236,220,226,218,94,225,193,38,144,102,46,109,98,215]},"announce":[],"urlList":[]}}